<svg xmlns="http://www.w3.org/2000/svg" style="isolation:isolate" viewBox="0 0 512 446.158"><defs><clipPath id="a"><path d="M0 0h512v446.158H0z"/></clipPath></defs><g clip-path="url(#a)"><g fill="#C12F93"><path d="M127.566.996c42.516.07 85.033-.087 127.549-.104C297.893-.087 340.689.42 383.468 0c42.743 73.18 85.155 146.552 127.706 219.854 1.119 1.748 1.101 3.496-.053 5.244-42.131 73.372-83.878 146.954-126.045 220.308-85.469-.017-170.956.752-256.426.752C85.994 372.035 43.058 298.068 0 224.207A82656.148 82656.148 0 0 1 127.566.996zm96.413 125.749c-3.409 14.247-7.027 28.443-10.436 42.708-14.703.122-29.423-.087-44.125.07-4.685-.262-4.982 5.087-5.891 8.391-1.714 8.636-4.546 17.028-6.154 25.681-1.084 3.287 1.975 5.857 5.07 5.665 13.706.227 27.429 0 41.152.07-3.006 11.345-5.664 22.779-8.618 34.142a702.444 702.444 0 0 0-30.926.384c-5.454.315-11.241-1.538-16.45.612-3.812 10.227-5.437 21.189-8.549 31.66-1.486 3.199.769 7.011 4.405 6.836 13.986.122 27.972.017 41.957.017-3.793 12.884-6.503 26.031-10.052 38.968-.559 2.832-1.783 6.922 1.521 8.531 9.755.682 19.562.035 29.352.314 2.605-.279 6.906.875 7.587-2.744 3.899-14.982 7.465-30.034 11.206-45.051 11.329.017 22.675.035 34.003-.018-3.584 14.021-7.238 28.041-10.524 42.132-1.049 2.972 1.573 6.188 4.72 5.612 10.472.017 20.978.174 31.467-.088 2.413.105 3.042-3.024 3.602-4.807 3.409-14.301 7.01-28.549 10.506-42.831 13.986.017 27.972 0 41.94.035 1.993-.158 4.493.262 5.909-1.539 2.832-8.374 4.265-17.167 6.66-25.663.927-4.039 3.339-8.741-.332-12.08-14.79.349-29.597-.997-44.369.087 2.605-11.538 5.979-22.901 8.374-34.492 13.723-.017 27.446-.017 41.17.035 2.412-.21 6.241.472 7.132-2.622 3.182-9.755 4.878-19.947 7.745-29.79 1.451-3.321-.175-7.674-4.283-7.412-13.828-.175-27.657-.122-41.485.017 3.059-14.475 7.238-28.705 10.489-43.145.123-2.972-2.797-5.35-5.681-4.72-10.734.332-21.591-.7-32.237.524-2.028 3.217-2.64 7.028-3.601 10.629-2.902 12.238-5.944 24.458-9.056 36.643-11.259-.035-22.499-.053-33.758 0 3.042-13.794 7.063-27.36 10.052-41.171.857-2.569-.035-6.398-3.251-6.503-10.437-.262-20.909-.122-31.363-.07-3.059-.489-4.458 2.483-4.878 4.983z"/><path d="M243.367 209.347c11.328-.035 22.639.052 33.967-.07-2.639 11.591-5.996 23.006-8.548 34.614-11.294-.367-22.604-.646-33.88-.07 2.674-11.52 5.699-22.971 8.461-34.474z"/></g><path fill="#FFF" d="M223.979 126.745c.42-2.5 1.819-5.472 4.878-4.983 10.454-.052 20.926-.192 31.363.07 3.216.105 4.108 3.934 3.251 6.503-2.989 13.811-7.01 27.377-10.052 41.171 11.259-.053 22.499-.035 33.758 0 3.112-12.185 6.154-24.405 9.056-36.643.961-3.601 1.573-7.412 3.601-10.629 10.646-1.224 21.503-.192 32.237-.524 2.884-.63 5.804 1.748 5.681 4.72-3.251 14.44-7.43 28.67-10.489 43.145 13.828-.139 27.657-.192 41.485-.017 4.108-.262 5.734 4.091 4.283 7.412-2.867 9.843-4.563 20.035-7.745 29.79-.891 3.094-4.72 2.412-7.132 2.622a8188.378 8188.378 0 0 0-41.17-.035c-2.395 11.591-5.769 22.954-8.374 34.492 14.772-1.084 29.579.262 44.369-.087 3.671 3.339 1.259 8.041.332 12.08-2.395 8.496-3.828 17.289-6.66 25.663-1.416 1.801-3.916 1.381-5.909 1.539-13.968-.035-27.954-.018-41.94-.035-3.496 14.282-7.097 28.53-10.506 42.831-.56 1.783-1.189 4.912-3.602 4.807-10.489.262-20.995.105-31.467.088-3.147.576-5.769-2.64-4.72-5.612 3.286-14.091 6.94-28.111 10.524-42.132-11.328.053-22.674.035-34.003.018-3.741 15.017-7.307 30.069-11.206 45.051-.681 3.619-4.982 2.465-7.587 2.744-9.79-.279-19.597.368-29.352-.314-3.304-1.609-2.08-5.699-1.521-8.531 3.549-12.937 6.259-26.084 10.052-38.968-13.985 0-27.971.105-41.957-.017-3.636.175-5.891-3.637-4.405-6.836 3.112-10.471 4.737-21.433 8.549-31.66 5.209-2.15 10.996-.297 16.45-.612a702.444 702.444 0 0 1 30.926-.384c2.954-11.363 5.612-22.797 8.618-34.142-13.723-.07-27.446.157-41.152-.07-3.095.192-6.154-2.378-5.07-5.665 1.608-8.653 4.44-17.045 6.154-25.681.909-3.304 1.206-8.653 5.891-8.391 14.702-.157 29.422.052 44.125-.07 3.409-14.265 7.027-28.461 10.436-42.708zm19.388 82.602c-2.762 11.503-5.787 22.954-8.461 34.474 11.276-.576 22.586-.297 33.88.07 2.552-11.608 5.909-23.023 8.548-34.614-11.328.122-22.639.035-33.967.07z"/></g></svg>